<?xml version="1.0" encoding="UTF-8"?>
<svg id="Ebene_1" data-name="Ebene 1" xmlns="http://www.w3.org/2000/svg" viewBox="0 0 438.22 342">
  <defs>
    <style>
      .cls-1 {
        fill: #394169;
      }
    </style>
  </defs>
  <path class="cls-1" d="M196.77,0v55h48.89V0h45.9c-.51,3.08,1.3,23-1.5,23h-14.47v116h-29.93v-59h-48.89v59h-30.93V23h-14.97V0h45.9Z"/>
  <path class="cls-1" d="M438.22,257c-15.47,7.78-40.69,8.43-42.89-13.51-.49-4.92-.42-13.84.25-18.73,2.6-19.15,25.03-18.11,39.65-14.76v14c-1.78-.29-10.59.4-10.98,0s.4-5.62.01-6.01c-1.01-1.02-11.28.33-13.5,1.98-4.62,3.44-4.37,20.72-2.99,26.05,1.62,6.29,7.45,6.31,13.03,6.02,8.74-.45,6.3-2.16,6.45-10.05h-9.99s0-9,0-9h20.96v24.01Z"/>
  <path class="cls-1" d="M168.83,342c.8-3.85-1.07-28.95,0-30,4.38-4.28,11.95,15.37,13.95,14,1.9-3.49,5.13-10.07,7.66-12.78,1.24-1.33,2.67-2.25,4.34-.64l-.02,29.42h-3.99v-21s-8,12-8,12l-9.95-12v21h-4Z"/>
  <path class="cls-1" d="M218.72,342c-3.05-1.9-6.98-6.89-6.98-10.5v-19.5h4.99v22.5c0,4.48,12.97,4.71,12.97-1v-21.5c0-.2,3.99-.2,3.99,0v23.5c0,1.64-4.6,5.29-5.99,6.5h-8.98Z"/>
  <path class="cls-1" d="M267.6,342h-8.98c-14.41-7.81-8.23-36.52,9.72-29.24,1.22.49,4.42,3.19,4.16,4.6-.97,5.23-5.04-.58-7.61-1.16-12.52-2.83-11.82,20.47-3.72,21.81,5.51.91,8.42-3.99,8.93-3.99.33,0,2.67,2.34,2.45,3.38-.33,1.61-4.32,2.67-4.95,4.6Z"/>
  <path class="cls-1" d="M23.16,209c-.26,1.58.37,8.65,0,9.01-.39.39-5.6-.4-6-.01-.43.42.32,10.1,0,12.01h17.96c-.31-1.9.43-11.58,0-12.01-.39-.39-5.6.4-6,.01-.36-.36.27-7.42,0-9.01h23.95c-.4,6.9,2.67,10.32-5.99,9v34c0,.69,8.96-2.16,5.99,9h-23.95c-2.28-11.81,4.71-7.79,5.99-9,.47-.45-.35-10.98,0-13h-17.96c.34,2.01-.47,12.55,0,13.01.39.39,5.6-.4,6-.01.36.36-.27,7.42,0,9.01H.21c.4-6.9-2.67-10.32,5.99-9v-34c-8.66,1.32-5.58-2.1-5.99-9h22.95Z"/>
  <path class="cls-1" d="M193.27,209c11.76,1.96,12.73,18.72,8.48,27.5l-8.97,6.98c2.42,1.71,4.49,6.89,6.99,8,1.94.86,5.76.31,5.98.51.35.33-.26,7.43,0,9.01h-13.97c-1.55-3.36-10.69-18.96-13.46-19.01-.65,1.42-.87,9.67-.51,10.01.38.37,4.62-.38,5-.01.35.34-.26,7.43,0,9.01h-22.95c-2.97-11.16,5.99-8.31,5.99-9v-34c-8.66,1.32-5.58-2.11-5.99-9,10.11,1.19,23.78-1.6,33.42,0ZM177.81,233c8.82-.39,14.92,3,14.03-8.56-.65-8.5-7.64-4.69-14.03-5.44v14Z"/>
  <path class="cls-1" d="M334.24,208.3c26.71-2.28,28.08,14.09,26.19,36.24-1.11,12.92-9.23,17.12-21.44,17.51-24.88.8-26.32-14.63-24.52-35.58,1.09-12.75,7.56-17.12,19.78-18.16ZM333.19,218.24c-4.02.73-5.76,2.43-6.48,6.5-.82,4.63-1,21.42,1.73,24.79,3.52,4.36,18.13,4.11,19.77-3.24.72-3.23.72-19.33,0-22.57-1.37-6.19-9.93-6.4-15.01-5.47Z"/>
  <path class="cls-1" d="M126.92,209v15c-1.68-.27-9.63.38-9.98,0s.38-4.63.01-5.01c-.45-.47-10.97.35-12.98,0v12.01h15.97v9h-15.96v12.01c2-.35,12.52.46,12.98,0,.39-.39-.4-5.62-.01-6.01s9.2.29,10.98,0v15h-40.91c.4-6.9-2.67-10.32,5.99-9v-34c-8.66,1.32-5.58-2.1-5.99-9h39.91Z"/>
  <path class="cls-1" d="M280.57,209l-.51,8.98-27.42,34.02h18.96c.25-1.48-.36-7.65,0-8.01.38-.39,8.29.29,9.98,0v17h-43.9l.54-7.96,26.4-34.04h-14.97c1.64,7.94-4.13,4.3-9.98,5v-15h40.91Z"/>
</svg>