<?xml version="1.0" encoding="UTF-8"?>
<svg id="Ebene_2" xmlns="http://www.w3.org/2000/svg" version="1.1" viewBox="0 0 194.9 23.8">
  <!-- Generator: Adobe Illustrator 29.6.1, SVG Export Plug-In . SVG Version: 2.1.1 Build 9)  -->
  <defs>
    <style>
      .st0 {
        fill: #3a416a;
      }
    </style>
  </defs>
  <g id="Ebene_1-2">
    <g>
      <g>
        <path class="st0" d="M53.7,8.8h2.7c.1,1.3,1,1.9,2.5,1.9s2-.4,2-1.4-1-1.2-2.7-1.6c-2.3-.5-4.2-1.1-4.2-3.5s2-3.5,4.6-3.5,4.4,1.2,4.6,3.5h-2.6c-.1-.9-.9-1.5-2-1.5s-1.8.5-1.8,1.2,1,1.1,2.9,1.5c2.1.5,4.1,1.2,4.1,3.7s-2,3.8-4.7,3.8-5.1-1.4-5.2-4h0Z"/>
        <path class="st0" d="M64.7,6.6c0-3.5,2.2-6.1,5.8-6.1s5.8,2.6,5.8,6.1-2.2,6.1-5.8,6.1-5.8-2.6-5.8-6.1ZM73.6,6.6c0-2.2-1-4-3-4s-3.1,1.7-3.1,4,1,3.9,3.1,3.9,3-1.7,3-3.9Z"/>
        <path class="st0" d="M77.3,6.6c0-3.5,2.3-6.1,5.8-6.1s2.4.3,3.2.9c1.1.8,1.7,1.9,1.8,3.2h-2.7c-.2-1.1-1-1.9-2.4-1.9-2,0-3,1.7-3,3.9s1.2,3.9,3,3.9,2.3-.9,2.4-2.1h2.7c0,1.2-.6,2.3-1.4,3.1-.9.9-2.1,1.3-3.7,1.3-3.4,0-5.8-2.6-5.8-6.1h0Z"/>
        <path class="st0" d="M89.6.7h2.7v11.8h-2.7V.7Z"/>
        <path class="st0" d="M97.7.7h2.8l4.2,11.8h-2.8l-.7-2.2h-4.3l-.7,2.2h-2.7l4.2-11.8h0ZM97.6,8.3h3l-.7-2.2c-.5-1.6-.8-3.1-.8-3.1h0s-.4,2-.8,3.1c0,0-.7,2.2-.7,2.2Z"/>
        <path class="st0" d="M106,.7h2.7v9.4h5.4v2.3h-8.1V.7h0Z"/>
        <path class="st0" d="M119.3.7h3.6l1.5,4.9c.4,1.5.9,4.2.9,4.2h0s.4-2.7.9-4.2l1.4-4.9h3.7v11.8h-2.5v-5.3c0-1.5.2-4.2.2-4.2h0s-.5,2.5-.9,3.9l-1.7,5.6h-2.2l-1.7-5.6c-.4-1.4-.9-3.9-.9-3.9h0s.2,2.8.2,4.2v5.3h-2.4V.7h0Z"/>
        <path class="st0" d="M136.7.7h2.8l4.2,11.8h-2.8l-.7-2.2h-4.3l-.7,2.2h-2.7l4.2-11.8h0ZM136.5,8.3h3l-.7-2.2c-.5-1.6-.8-3.1-.8-3.1h0s-.4,2-.8,3.1l-.7,2.2h0Z"/>
        <path class="st0" d="M144.9.7h2.8l3.1,5.1c.7,1.2,1.6,3.1,1.6,3.1h0s-.1-2.1-.1-3.4V.7h2.6v11.8h-2.8l-3.1-5c-.7-1.2-1.6-3.1-1.6-3.1h0s.1,2.1.1,3.5v4.7h-2.6V.7h0Z"/>
        <path class="st0" d="M156.2,8.8h2.7c.1,1.3,1,1.9,2.5,1.9s2-.4,2-1.4-1-1.2-2.7-1.6c-2.3-.5-4.2-1.1-4.2-3.5s2-3.5,4.6-3.5,4.4,1.2,4.6,3.5h-2.6c-.1-.9-.9-1.5-2-1.5s-1.9.5-1.9,1.2,1,1.1,2.9,1.5c2.1.5,4.1,1.2,4.1,3.7s-2.1,3.8-4.7,3.8-5.1-1.4-5.2-4h0Z"/>
        <path class="st0" d="M167.7.7h2.7v11.8h-2.7V.7Z"/>
        <path class="st0" d="M171.9,6.6c0-3.5,2.2-6.1,5.8-6.1s5.8,2.6,5.8,6.1-2.2,6.1-5.8,6.1-5.8-2.6-5.8-6.1ZM180.8,6.6c0-2.2-1-4-3-4s-3.1,1.7-3.1,4,1,3.9,3.1,3.9,3-1.7,3-3.9Z"/>
        <path class="st0" d="M185,.7h2.8l3.1,5.1c.7,1.2,1.6,3.1,1.6,3.1h0s-.1-2.1-.1-3.4V.7h2.6v11.8h-2.8l-3.1-5c-.7-1.2-1.6-3.1-1.6-3.1h0s.1,2.1.1,3.5v4.7h-2.6V.7h0Z"/>
        <path class="st0" d="M53.7,20.9c0-1.4.8-2.4,2.2-2.4s1.7.6,1.9,1.5h-.6c-.1-.6-.6-1-1.3-1s-1.6.8-1.6,1.9.6,1.9,1.6,1.9,1.3-.6,1.3-1.3h.6c0,.5-.2,1-.6,1.3-.3.3-.8.5-1.4.5-1.3,0-2.2-1-2.2-2.4h0Z"/>
        <path class="st0" d="M58.7,18.6h2.2c.8,0,1.4.5,1.4,1.3s-.2,1-.8,1.1h0c.5.2.6.5.7,1.2,0,.8.1.9.2,1h0s-.6,0-.6,0c0,0-.1-.3-.2-1,0-.7-.3-.9-.9-.9h-1.3v2h-.6v-4.6h0ZM59.3,20.8h1.4c.7,0,1-.3,1-.9s-.3-.9-.9-.9h-1.4s0,1.7,0,1.7Z"/>
        <path class="st0" d="M63.2,18.6h3.3v.5h-2.7v1.5h2.5v.5h-2.5v1.6h2.8v.5h-3.4v-4.6h0Z"/>
        <path class="st0" d="M68.9,18.6h.7l1.7,4.6h-.6l-.5-1.4h-1.8l-.5,1.4h-.6l1.7-4.6h0ZM68.5,21.3h1.5l-.5-1.6c0-.3-.2-.7-.2-.7h0s-.1.4-.2.7l-.6,1.6h0Z"/>
        <path class="st0" d="M71.2,18.6h3.7v.5h-1.6v4.1h-.6v-4.1h-1.6s0-.5,0-.5Z"/>
        <path class="st0" d="M75.7,18.6h.6v4.6h-.6v-4.6Z"/>
        <path class="st0" d="M77.1,18.6h.6l1.1,3.5c0,.2.2.6.2.6h0s.1-.4.2-.6l1.1-3.5h.6l-1.6,4.6h-.6l-1.6-4.6h0Z"/>
        <path class="st0" d="M81.7,18.6h3.3v.5h-2.7v1.5h2.4v.5h-2.4v1.6h2.8v.5h-3.4v-4.6h0Z"/>
        <path class="st0" d="M87,21.7h.6c0,.8.6,1.2,1.4,1.2s1.1-.3,1.1-.9-.6-.8-1.4-1c-.8-.2-1.5-.4-1.5-1.3s.6-1.2,1.6-1.2,1.6.6,1.8,1.5h-.6c0-.7-.5-1-1.2-1s-1.1.3-1.1.8.5.7,1.2.8c.9.2,1.7.4,1.7,1.5s-.7,1.4-1.7,1.4-1.9-.7-2-1.7h0Z"/>
        <path class="st0" d="M91.1,18.6h3.7v.5h-1.6v4.1h-.6v-4.1h-1.6s0-.5,0-.5Z"/>
        <path class="st0" d="M95.6,21.7v-3.1h.6v3.1c0,.8.4,1.1,1.2,1.1s1.2-.3,1.2-1.1v-3.1h.6v3.1c0,1.1-.8,1.6-1.8,1.6s-1.8-.5-1.8-1.6h0Z"/>
        <path class="st0" d="M100.2,18.6h1.7c1.4,0,2.1,1,2.1,2.3s-.7,2.3-2.1,2.3h-1.6v-4.6ZM101.8,22.7c1.1,0,1.5-.7,1.5-1.8s-.4-1.8-1.5-1.8h-1.1v3.6h1Z"/>
        <path class="st0" d="M104.9,18.6h.6v4.6h-.6v-4.6Z"/>
        <path class="st0" d="M106.5,20.9c0-1.4.9-2.4,2.3-2.4s2.3,1,2.3,2.4-.9,2.4-2.3,2.4-2.3-1-2.3-2.4ZM110.4,20.9c0-1.1-.6-1.9-1.7-1.9s-1.7.8-1.7,1.9.6,1.9,1.7,1.9,1.7-.8,1.7-1.9Z"/>
      </g>
      <g>
        <g>
          <path class="st0" d="M2.5,5.1c-.6,2.8,1.4,6.6,4,7.5,1.2.4,3.1.5,4.5.4,1.5,0,2.4-.4,3.3.2.8.4,1.6,1.4,1.4,2.2-.2.5-.8.8-.8.8-.7.3-1.3-.3-2.3-.5-.8-.2-2.1-.2-2.8.4-1.4,1.2-1.1,4,1.3,5.3,3.8,2.1,8.8.9,10.4-3.4,1.9-5.2-2.5-8.1-7-8.7-2-.3-5.5.2-6.7-1.8-.5-.8-.5-2.1.6-2.4,2.4-.7,5,3.5,8.2,2.1,1.6-.7,2.3-2.4,2-3.9-.2-1-.9-2-2.1-2.5C12.5-.9,3.6,0,2.5,5.1Z"/>
          <path class="st0" d="M7.6,19.7c.3-.3.5-.7.5-1.2,0-.7-.5-1.2-1-1.6-.7-.7-1-.6-1.5-1.2-.3-.4-.3-.6-.6-1.4-.4-1.1-.7-1.7-1.2-2-.9-.6-2.8,0-3.5,1-1,1.8,1,5.4,3.7,6.5.9.4,2.8.8,3.6,0h0Z"/>
          <path class="st0" d="M39.9.9c-1.3,1.1.6,3.8,1.8,4.2.7.2,2,.2,2.2-.7.2-1.2-.4-2.9-1.5-3.5-.6-.4-1.9-.6-2.5,0h0Z"/>
          <path class="st0" d="M18.9,8.8c-.1-.2-.5-.8-.5-1.5,0-1.4,1.1-3.2,3-3.2,1.5,0,2.7,1.2,2.9,2.4.1.5,0,1,0,1.4.2-.5.7-1.5,1.7-2.3.2-.2,1-.7,2.2-.7,1.6,0,2.8,1.1,3.4,2.9h0c0-.2,0-.5,0-.9,0-.9,0-1,0-1.4.1-.6.5-1,.6-1.2.2-.3.4-.5.6-.6,0,0,.4-.3.9-.5.8-.4,1.7-.4,2-.4,1,0,1.7.4,2.1.6,1.2.7,2,1.6,2.3,2.2,1.3,2.2-.5,3.7-.4,7.7.2,3.9,2.1,5.4.9,7.2-.6,1-1.9,1.9-3.2,1.5-1-.3-1.8-1.2-2-2.4,0-2.8-.2-4.7-.2-5.7,0-2.2,0-3.3-.6-3.6-.4-.3-1.1,0-1.4.7-.2.4-.2.8-.2,2.1,0,2.1,0,2.5-.2,2.9-.2.5-.4,1.2-1,1.5-.6.3-1.4.2-1.9-.2-.2-.1-.5-.5-.7-1.7-.3-1.6,0-2-.2-3.3-.2-.8-.4-1.6-1.1-2.1-.5-.3-1.2-.5-1.6-.2-.6.5,0,1.9.4,3.3.8,2.7,1.4,7.6-.8,9.6-.8.8-2.2,1.3-3.3.8-.7-.3-1.2-1-1.3-1.7-.1-1,.5-1.6.9-2.9.7-1.9,1.4-4.9.1-6.8-.2-.4-.9-1.1-1.7-1.9-.8-.6-1.2-.8-1.7-1.5Z"/>
        </g>
        <path class="st0" d="M20.4,4.3c0,0-.2,0-.4.2-.3.2-.4.3-.6.3,0,0-.4.1-.6,0-.1-.1,0-.2,0-.8,0-.1,0-.5-.1-.9,0-.1,0-.2,0-.3-.5,1.3-.9,2.7-1.4,4,0,0,.5-.3.9-.4,0,0,.1,0,.2,0,.1,0,.2.2.2.2,0,0,0,0,0,.3v.3l1.9-2.9h0Z"/>
      </g>
    </g>
  </g>
</svg>